<svg width="80" height="40" viewBox="0 0 80 40" fill="none" xmlns="http://www.w3.org/2000/svg">
<path fill-rule="evenodd" clip-rule="evenodd" d="M26 0H0V10.5L12 7.86V34H13.44V7.5432L25 5L26 0ZM48.9251 34H48L46.5176 17.2H32.5059L33 34H31.6451H30.2051H24.5L30 0H32L32.4635 15.76H46.3906L45 0H52L51 34H50.3651H48.9251ZM56.613 34H76.197H77V33L64.1457 22.9002L71 10L71.0009 9.9985L77 0H57V2L69.746 9.28342L62.8779 22.2093L56 34H56.613Z" fill="#333"/>
<circle cx="12.5" cy="30.5" r="3.5" fill="#333"/>
<circle cx="57.5" cy="3.5" r="3.5" fill="#333"/>
<circle cx="76.5" cy="30.5" r="3.5" fill="#333"/>
<circle cx="32.5" cy="30.5" r="3.5" fill="#333"/>
<circle cx="45.5" cy="3.5" r="3.5" fill="#333"/>
<g clip-path="url(#clip0_59_209)">
<rect y="37" width="56" height="3" rx="1.5" fill="#333"/>
<rect x="59" y="37" width="3" height="3" rx="1.5" fill="#333"/>
<rect x="65" y="37" width="3" height="3" rx="1.5" fill="#333"/>
<rect x="71" y="37" width="3" height="3" rx="1.5" fill="#333"/>
<rect x="77" y="37" width="3" height="3" rx="1.5" fill="#333"/>
</g>
<defs>
<clipPath id="clip0_59_209">
<rect y="37" width="80" height="3" rx="1.5" fill="#333"/>
</clipPath>
</defs>
</svg>
